<svg width="1100" height="579" viewBox="0 0 1100 579" fill="none" xmlns="http://www.w3.org/2000/svg">
<mask id="mask0_51_78" style="mask-type:luminance" maskUnits="userSpaceOnUse" x="192" y="29" width="286" height="550">
<path d="M477.333 29.3334H192V578.667H477.333V29.3334Z" fill="white"/>
</mask>
<g mask="url(#mask0_51_78)">
<path d="M466.499 277.68C471.181 296.008 472.358 316.023 470.03 337.732C468.874 350.888 466.15 363.695 461.864 376.159C457.567 388.279 452.098 399.414 445.457 409.565C438.858 420.049 431.249 429.404 422.634 437.628L422.582 437.68L422.53 437.727C413.509 445.961 403.697 452.831 393.093 458.326C382.442 463.852 371.015 467.794 358.806 470.154C346.619 472.513 333.864 473.107 320.546 471.93L320.306 471.909C307.759 470.336 295.801 467.201 284.416 462.487C273.015 457.773 262.588 451.674 253.14 444.19L257.27 438.977L253.28 444.299C243.775 437.169 235.463 428.664 228.343 418.779L233.744 414.888L228.525 419.018C221.046 409.57 214.947 399.143 210.228 387.742C205.546 376.424 202.228 364.529 200.28 352.055C198.332 339.57 197.936 326.711 199.108 313.471L199.119 313.362L199.129 313.258C200.676 300.508 203.379 288.143 207.244 276.164L207.275 276.07L207.306 275.982C211.593 263.904 217.056 252.789 223.692 242.633C230.322 232.107 238.15 222.721 247.181 214.471L251.671 219.388L246.963 214.68C255.666 205.982 265.364 198.857 276.056 193.315C286.629 187.831 297.791 183.716 309.535 180.977L309.785 180.924C322.051 178.549 334.515 178.154 347.166 179.732L346.338 186.336L346.978 179.711C367.259 181.664 385.629 186.95 402.082 195.565C418.233 204.232 431.822 215.456 442.843 229.237C453.504 243.055 461.379 259.159 466.468 277.549L466.499 277.68ZM453.645 281.096C449.02 264.383 441.957 249.867 432.452 237.544C422.562 225.185 410.384 215.117 395.91 207.352C380.994 199.539 364.259 194.742 345.702 192.956L345.608 192.95L345.515 192.935C334.265 191.529 323.197 191.878 312.312 193.987L311.046 187.456L312.562 193.935C301.895 196.424 291.77 200.154 282.181 205.128C272.707 210.039 264.103 216.357 256.374 224.091L256.155 224.299C248.009 231.737 240.9 240.273 234.827 249.914C228.77 259.18 223.775 269.352 219.848 280.43L213.577 278.206L219.905 280.247C216.301 291.419 213.78 302.956 212.338 314.857L205.733 314.055L212.358 314.643C211.285 326.799 211.645 338.586 213.426 350.003C215.213 361.43 218.244 372.315 222.525 382.654C226.77 392.914 232.249 402.284 238.957 410.758L239.051 410.878L239.14 411.003C245.468 419.789 252.843 427.341 261.259 433.654L261.332 433.706L261.4 433.763C269.879 440.471 279.244 445.951 289.504 450.195C299.78 454.451 310.598 457.284 321.957 458.706L321.129 465.305L321.718 458.68C333.791 459.742 345.312 459.216 356.28 457.091C367.228 454.977 377.457 451.451 386.973 446.513C396.535 441.555 405.4 435.352 413.556 427.904L418.041 432.815L413.447 428.003C421.265 420.539 428.223 411.966 434.322 402.284C440.379 393.018 445.369 382.867 449.285 371.831C453.213 360.393 455.723 348.555 456.801 336.315C458.957 316.195 457.895 297.747 453.608 280.971L453.645 281.096ZM377.838 359.674C378.489 354.805 378.322 349.93 377.348 345.049L383.869 343.747L377.473 345.576C376.134 340.883 374.296 336.534 371.963 332.534L377.707 329.18L372.327 333.096C369.806 329.628 366.634 326.622 362.817 324.076C358.921 321.378 354.416 319.878 349.312 319.576L349.114 319.565L348.921 319.544C343.603 318.919 338.822 319.362 334.572 320.883L334.312 320.971L334.046 321.044C329.374 322.289 325.348 324.294 321.983 327.049L317.77 321.898L322.244 326.82C318.801 329.951 316.15 333.534 314.285 337.57L314.202 337.758L314.103 337.935C311.874 342.081 310.437 346.549 309.801 351.346C309.15 356.216 309.312 361.091 310.291 365.971C311.239 370.711 312.963 374.956 315.463 378.706L315.634 378.971L315.785 379.242C317.832 383.049 320.78 386.133 324.619 388.497L324.879 388.659L325.124 388.841C328.65 391.482 332.994 393.112 338.155 393.716L337.374 400.326V393.669H338.702L338.91 393.685C343.978 394.003 348.697 393.378 353.067 391.82C357.869 390.216 361.978 387.862 365.39 384.758C368.937 381.534 371.838 377.831 374.093 373.643L379.952 376.794L373.838 374.174C375.838 369.508 377.171 364.669 377.838 359.674ZM391.025 361.43C390.197 367.633 388.546 373.633 386.067 379.419L385.947 379.69L385.806 379.951C382.832 385.471 379.009 390.357 374.343 394.602C369.541 398.966 363.942 402.216 357.541 404.346C351.452 406.523 344.968 407.393 338.082 406.966L338.494 400.326V406.977H336.989L336.598 406.93C329.062 406.044 322.577 403.56 317.14 399.482L321.129 394.164L317.645 399.826C311.775 396.216 307.249 391.456 304.072 385.555L309.926 382.398L304.39 386.091C300.916 380.878 298.535 375.039 297.244 368.581C295.978 362.253 295.765 355.924 296.608 349.591C297.463 343.185 299.39 337.195 302.39 331.628L308.249 334.784L302.207 331.997C304.822 326.32 308.52 321.315 313.296 316.977L313.421 316.862L313.556 316.753C318.405 312.784 324.093 309.93 330.619 308.19L332.332 314.617L330.098 308.352C336.301 306.133 343.098 305.461 350.478 306.331L349.702 312.935L350.093 306.294C357.681 306.742 364.384 308.977 370.197 313.003C375.338 316.43 379.634 320.518 383.088 325.268L383.285 325.539L383.457 325.831C386.348 330.789 388.619 336.154 390.27 341.919L390.343 342.18L390.395 342.44C391.66 348.768 391.869 355.096 391.025 361.43Z" fill="black"/>
<path d="M460.067 279.331C464.535 296.872 465.655 316.102 463.421 337.018C462.296 349.716 459.676 362.039 455.567 373.997C451.468 385.57 446.244 396.216 439.9 405.935C433.535 416.018 426.254 424.977 418.046 432.81C409.447 440.659 400.108 447.195 390.025 452.414C379.942 457.654 369.114 461.388 357.546 463.622C345.963 465.857 333.822 466.419 321.129 465.31C309.181 463.81 297.796 460.826 286.963 456.352C276.129 451.867 266.233 446.076 257.275 438.977C248.301 432.258 240.452 424.227 233.733 414.893C226.65 405.924 220.864 396.029 216.379 385.206C211.895 374.372 208.723 362.977 206.858 351.018C204.983 339.076 204.608 326.758 205.733 314.06C207.233 301.727 209.848 289.779 213.567 278.206C217.676 266.622 222.905 255.977 229.254 246.268C235.598 236.185 243.072 227.227 251.671 219.393C259.879 211.174 269.025 204.445 279.108 199.206C289.192 193.987 299.838 190.07 311.046 187.456C322.629 185.206 334.39 184.831 346.338 186.331C365.754 188.195 383.306 193.237 399.004 201.456C414.306 209.68 427.192 220.326 437.65 233.393C447.733 246.466 455.202 261.779 460.067 279.331ZM384.442 360.56C385.176 354.951 384.989 349.346 383.879 343.747C382.379 338.513 380.322 333.659 377.713 329.185C374.723 325.076 370.989 321.529 366.504 318.539C361.655 315.18 356.051 313.31 349.692 312.935C343.343 312.185 337.556 312.747 332.338 314.622C326.739 316.112 321.884 318.534 317.775 321.893C313.66 325.633 310.489 329.93 308.254 334.789C305.629 339.638 303.947 344.867 303.213 350.477C302.463 356.076 302.65 361.674 303.775 367.268C304.884 372.883 306.931 377.924 309.921 382.393C312.546 387.258 316.28 391.18 321.129 394.164C325.614 397.529 331.03 399.581 337.379 400.331C337.754 400.331 338.03 400.331 338.213 400.331C338.405 400.331 338.504 400.331 338.504 400.331C344.473 400.706 350.072 399.956 355.296 398.081C360.905 396.221 365.759 393.424 369.858 389.685C373.968 385.951 377.327 381.654 379.942 376.789C382.192 371.57 383.692 366.159 384.442 360.56Z" fill="#D42310"/>
</g>
<mask id="mask1_51_78" style="mask-type:luminance" maskUnits="userSpaceOnUse" x="0" y="10" width="271" height="551">
<path d="M270.667 10.6667H0V560H270.667V10.6667Z" fill="white"/>
</mask>
<g mask="url(#mask1_51_78)">
<path d="M258.147 163.133C262.459 175.679 265.006 189.924 265.782 205.862C266.558 223.351 265.183 238.95 261.657 252.659C258.11 266.461 252.767 278.716 245.626 289.424L240.09 285.731L245.72 289.278C238.944 300.044 230.569 309.216 220.59 316.799C211.261 324.185 200.933 330.419 189.595 335.497C186.725 336.726 182.022 338.403 175.48 340.518C169.022 342.606 161.912 344.695 154.147 346.778C146.423 348.846 139.355 350.638 132.938 352.148C126.089 353.763 120.912 354.565 117.412 354.565V347.914L123.985 346.883L139.636 446.815L20.2197 458.888L20.0114 451.737C19.6416 438.732 19.178 427.403 18.6207 417.758L16.9384 388.346C16.3759 378.388 15.9072 367.028 15.5322 354.273L9.93323 236.195C9.18844 215.268 8.25614 194.367 7.13635 173.492C6.01135 152.502 5.26135 131.32 4.88635 109.955L4.80823 105.471L8.93323 103.716C26.8082 96.1117 44.8759 90.0232 63.1416 85.4554C81.1312 81.2471 99.8343 78.57 119.261 77.4294L119.345 77.4242L119.423 77.419C130.636 77.0336 141.845 77.6117 153.053 79.1586C164.407 80.7263 175.558 83.6586 186.506 87.9607C197.157 92.2992 207.001 97.8096 216.037 104.487C225.532 111.211 233.855 119.539 241.011 129.476L241.063 129.549L241.11 129.622C247.761 139.398 253.418 150.513 258.084 162.961L258.116 163.044L258.147 163.133ZM245.563 167.455L251.855 165.294L245.626 167.633C241.334 156.179 236.157 146.002 230.11 137.106L235.61 133.367L230.209 137.252C223.923 128.518 216.558 121.159 208.126 115.185C199.985 109.169 191.157 104.221 181.642 100.346C171.678 96.4294 161.543 93.7627 151.235 92.3409C140.782 90.8982 130.329 90.3565 119.881 90.7159L119.652 84.07L120.043 90.7107C101.376 91.8096 83.4853 94.3617 66.3707 98.3669C48.7822 102.763 31.3759 108.627 14.1416 115.961L11.5374 109.836L18.1884 109.721C18.5634 130.929 19.303 151.95 20.4228 172.784C21.5426 193.737 22.4801 214.664 23.2249 235.565L28.8291 353.883C29.2041 366.518 29.6676 377.752 30.2249 387.586L31.902 416.992C32.4697 426.768 32.9384 438.221 33.3134 451.357L26.6624 451.549L25.9957 444.929L131.308 434.284L131.975 440.903L125.402 441.935L109.636 341.263H117.412C119.886 341.263 124.048 340.575 129.892 339.195C136.173 337.721 143.11 335.961 150.699 333.924C158.246 331.903 165.142 329.877 171.381 327.862C177.537 325.867 181.793 324.367 184.152 323.356C194.48 318.726 203.938 313.013 212.537 306.205C221.235 299.596 228.543 291.591 234.465 282.19L234.506 282.117L234.558 282.044C240.86 272.586 245.6 261.69 248.772 249.346C251.97 236.914 253.209 222.638 252.496 206.513C251.777 191.83 249.47 178.81 245.563 167.455ZM158.897 220.289C161.673 217.789 164.006 213.148 165.902 206.362C167.912 199.159 168.496 191.784 167.657 184.237C166.918 177.56 164.402 172.362 160.11 168.643L160.043 168.58L159.97 168.518C156.522 165.356 151.944 163.398 146.235 162.648C139.668 161.784 133.188 161.695 126.808 162.388C120.204 163.101 114.808 163.981 110.621 165.028L103.902 166.705L102.287 160.252L108.933 159.945L109.491 171.987C109.855 179.825 110.959 190.554 112.803 204.179C114.298 217.242 115.595 227.278 116.699 234.278L118.381 244.924L111.808 245.961L114.787 240.013C114.142 239.69 113.584 239.513 113.121 239.492C113.339 239.502 113.699 239.492 114.199 239.461C115.517 239.377 117.392 239.164 119.834 238.815C124.553 238.143 130.501 236.403 137.683 233.601C144.636 230.888 151.746 226.414 159.017 220.185L163.345 225.237L158.897 220.289ZM167.798 230.179L167.735 230.231L167.678 230.284C159.261 237.497 150.876 242.737 142.517 245.997C134.386 249.169 127.449 251.169 121.714 251.987C115.116 252.929 110.824 252.903 108.834 251.909L105.772 250.383L103.558 236.356C102.423 229.164 101.11 219.034 99.6155 205.961C97.7249 191.95 96.5843 180.83 96.2041 172.606L95.3864 155.122L107.397 152.117C112.173 150.924 118.168 149.94 125.381 149.159C132.819 148.351 140.345 148.455 147.97 149.455C156.454 150.57 163.449 153.659 168.964 158.711L164.47 163.617L168.824 158.586C175.735 164.58 179.756 172.638 180.881 182.768C181.912 192.023 181.188 201.08 178.72 209.935C176.131 219.211 172.491 225.955 167.798 230.179Z" fill="black"/>
<path d="M251.855 165.284C255.964 177.242 258.397 190.877 259.147 206.179C259.881 222.987 258.569 237.924 255.209 250.992C251.845 264.075 246.803 275.659 240.084 285.742C233.735 295.825 225.897 304.409 216.563 311.492C207.605 318.591 197.709 324.57 186.876 329.429C184.261 330.554 179.782 332.148 173.438 334.2C167.089 336.242 160.084 338.294 152.418 340.346C144.761 342.403 137.761 344.179 131.418 345.679C125.069 347.169 120.402 347.909 117.418 347.909L131.98 440.909L26.6676 451.554C26.2926 438.487 25.8186 427.096 25.2509 417.388C24.6936 407.669 24.1364 397.862 23.5843 387.971C23.027 378.07 22.5634 366.773 22.1884 354.075C20.3134 315.606 18.4436 276.2 16.5843 235.867C15.8343 214.966 14.8968 194.054 13.7718 173.138C12.6572 152.221 11.9176 131.117 11.5426 109.825C29.0947 102.367 46.8343 96.3982 64.7509 91.9086C82.303 87.7992 100.605 85.1794 119.647 84.0544C130.48 83.695 141.313 84.2575 152.147 85.7419C162.98 87.2419 173.626 90.044 184.084 94.1377C194.168 98.2523 203.501 103.481 212.084 109.825C221.043 116.174 228.881 124.023 235.605 133.367C241.949 142.7 247.366 153.341 251.855 165.284ZM163.355 225.242C167.089 221.883 170.074 216.19 172.313 208.159C174.548 200.117 175.199 191.898 174.272 183.492C173.339 175.091 170.069 168.466 164.459 163.617C159.985 159.508 154.199 156.987 147.105 156.054C140.006 155.112 133.001 155.013 126.084 155.763C119.178 156.513 113.485 157.45 109.001 158.575C104.527 159.69 102.293 160.242 102.293 160.242C102.293 160.242 102.48 164.263 102.855 172.304C103.23 180.336 104.345 191.258 106.209 205.075C107.709 218.148 109.011 228.232 110.126 235.325C111.251 242.409 111.813 245.95 111.813 245.95C112.563 246.325 115.548 246.148 120.772 245.409C126.006 244.659 132.449 242.794 140.105 239.804C147.756 236.82 155.506 231.966 163.355 225.242Z" fill="#D42310"/>
</g>
<mask id="mask2_51_78" style="mask-type:luminance" maskUnits="userSpaceOnUse" x="600" y="29" width="378" height="550">
<path d="M977.333 29.3334H600V578.667H977.333V29.3334Z" fill="white"/>
</mask>
<g mask="url(#mask2_51_78)">
<path d="M887.473 82.9245L973.171 465.154L829.104 476.898L815.635 408.331L822.161 407.044L821.791 413.69L761.848 410.326L762.223 403.685L768.671 405.326L751.489 472.81L604.947 449.935L730.557 77.7318H886.307L887.473 82.9245ZM874.489 85.8359L880.979 84.3828V91.0338H735.333V84.3828L741.635 86.5078L620.077 446.706L613.775 444.581L614.801 438.008L747.562 458.732L746.536 465.305L740.088 463.664L757.124 396.737L827.692 400.695L841.015 468.503L834.484 469.789L833.942 463.154L964.468 452.513L965.01 459.143L958.515 460.596L874.489 85.8359ZM777.729 313.576L816.937 315.815L816.562 322.461L809.989 323.492L794.864 227.138L801.437 226.107L807.88 227.758L783.791 321.867L777.348 320.216L777.729 313.576ZM768.9 326.398L794.989 224.461L808.005 225.076L824.411 329.57L776.968 326.862L768.9 326.398Z" fill="black"/>
<path d="M880.989 84.3724L965.01 459.143L834.489 469.789L822.156 407.039L762.218 403.685L746.531 465.31L613.781 444.581L735.343 84.3724H880.989ZM777.343 320.227L816.551 322.456L801.426 226.102L777.343 320.227Z" fill="#D42310"/>
</g>
<mask id="mask3_51_78" style="mask-type:luminance" maskUnits="userSpaceOnUse" x="946" y="29" width="155" height="550">
<path d="M1100 29.3334H946.667V578.667H1100V29.3334Z" fill="white"/>
</mask>
<g mask="url(#mask3_51_78)">
<path d="M1080.54 472.503L970.065 480.263L953.763 65.1693L1095.26 99.9245L1086.59 472.076L1080.54 472.503ZM1079.61 459.232L1080.08 465.867L1073.43 465.711L1081.83 104.956L1088.48 105.107L1086.89 111.57L959.175 80.2006L960.758 73.737L967.409 73.4766L983.091 472.888L976.445 473.148L975.977 466.513L1079.61 459.232Z" fill="black"/>
<path d="M1080.09 465.872L976.44 473.143L960.753 73.7266L1088.48 105.102L1080.09 465.872Z" fill="#D42310"/>
</g>
<mask id="mask4_51_78" style="mask-type:luminance" maskUnits="userSpaceOnUse" x="414" y="0" width="320" height="572">
<path d="M733.333 0H414.667V572H733.333V0Z" fill="white"/>
</mask>
<g mask="url(#mask4_51_78)">
<path d="M707.104 175.469C710.265 188.354 711.515 202.771 710.854 218.719C710.052 236.198 707.276 251.61 702.526 264.948C697.75 278.375 691.323 290.094 683.244 300.12L678.067 295.943L683.354 299.979C675.63 310.089 666.463 318.469 655.838 325.125C645.885 331.636 635.036 336.912 623.286 340.953C620.317 341.917 615.479 343.162 608.776 344.677C602.156 346.177 594.885 347.615 586.963 348.985C579.088 350.354 571.885 351.5 565.359 352.427C558.395 353.412 553.166 353.75 549.677 353.433L550.276 346.808L556.916 346.375L563.494 447.313L443.468 448.563L443.911 441.422C444.713 428.438 445.276 417.115 445.588 407.459L446.567 378.011C446.906 368.042 447.463 356.688 448.239 343.948L453.312 225.849C454.458 204.938 455.411 184.042 456.182 163.151C456.953 142.141 458.119 120.979 459.672 99.6669L459.994 95.1982L464.265 93.818C482.75 87.8597 501.297 83.4274 519.901 80.5263C538.192 77.9534 557.062 76.9742 576.515 77.5888L576.593 77.594H576.677C587.875 78.2242 598.989 79.8128 610.01 82.3597C621.177 84.943 632.02 88.8701 642.536 94.1409C652.75 99.4274 662.057 105.797 670.453 113.266C679.302 120.818 686.843 129.865 693.073 140.407L693.114 140.485L693.161 140.563C698.901 150.896 703.531 162.474 707.057 175.292L707.083 175.38L707.104 175.469ZM694.182 178.641L700.64 177.058L694.229 178.823C690.984 167.026 686.75 156.427 681.526 147.021L687.343 143.792L681.614 147.177C676.14 137.907 669.474 129.917 661.614 123.209C654.047 116.479 645.698 110.755 636.573 106.037C627 101.24 617.145 97.6669 607.01 95.3232C596.734 92.943 586.375 91.4638 575.932 90.8805L576.302 84.2399L576.093 90.8857C557.406 90.2972 539.354 91.2242 521.948 93.6722C504.036 96.4638 486.172 100.735 468.349 106.485L466.307 100.151L472.942 100.636C471.401 121.792 470.244 142.792 469.479 163.641C468.703 184.61 467.75 205.537 466.609 226.417L461.52 344.761C460.75 357.381 460.198 368.61 459.864 378.453L458.89 407.891C458.567 417.677 458.005 429.13 457.192 442.245L450.552 441.834L450.484 435.183L556.328 434.078L556.395 440.729L549.76 441.162L543.135 339.479L550.88 340.183C553.338 340.407 557.547 340.094 563.494 339.25C569.885 338.344 576.948 337.219 584.692 335.881C592.39 334.542 599.437 333.151 605.838 331.703C612.145 330.276 616.52 329.162 618.963 328.37C629.661 324.693 639.599 319.849 648.776 313.849C658.036 308.052 666.036 300.735 672.776 291.907L672.833 291.839L672.885 291.771C680.015 282.922 685.718 272.49 689.994 260.485C694.297 248.396 696.823 234.287 697.562 218.162C698.172 203.479 697.047 190.302 694.182 178.641ZM603.104 223.443C606.093 221.203 608.838 216.792 611.338 210.203C613.989 203.214 615.234 195.922 615.083 188.328C614.942 181.61 612.906 176.203 608.968 172.115L608.843 171.979C605.692 168.521 601.307 166.157 595.692 164.896C589.229 163.443 582.786 162.771 576.369 162.88C569.724 163 564.27 163.386 560.01 164.052L553.161 165.12L552.14 158.547L558.786 158.839L558.255 170.886C557.911 178.719 558.041 189.505 558.651 203.24C558.958 216.386 559.349 226.5 559.817 233.573L560.531 244.323L553.895 244.766L557.395 239.104C556.781 238.724 556.244 238.505 555.786 238.438C556 238.469 556.359 238.49 556.854 238.505C558.177 238.542 560.067 238.5 562.526 238.37C567.291 238.125 573.369 236.933 580.776 234.787C587.942 232.714 595.432 228.901 603.234 223.349L607.088 228.771L603.104 223.443ZM611.078 234.094L611.01 234.146L610.948 234.193C601.916 240.615 593.088 245.073 584.474 247.568C576.088 249.995 569 251.36 563.213 251.657C556.557 252 552.281 251.589 550.395 250.422L547.484 248.62L546.541 234.453C546.057 227.193 545.666 216.979 545.354 203.823C544.734 189.698 544.604 178.526 544.963 170.302L545.729 152.813L557.958 150.907C562.828 150.146 568.885 149.703 576.14 149.578C583.619 149.448 591.109 150.229 598.609 151.912C606.958 153.792 613.645 157.495 618.682 163.021L613.76 167.5L618.557 162.886C624.901 169.479 628.177 177.87 628.385 188.058C628.573 197.37 627.036 206.323 623.776 214.922C620.364 223.922 616.13 230.313 611.078 234.094Z" fill="black"/>
<path d="M700.645 177.052C703.645 189.334 704.833 203.125 704.208 218.427C703.427 235.235 700.776 249.99 696.25 262.698C691.718 275.438 685.656 286.521 678.062 295.948C670.823 305.422 662.239 313.261 652.312 319.469C642.739 325.735 632.343 330.802 621.125 334.677C618.416 335.552 613.812 336.729 607.312 338.198C600.812 339.657 593.651 341.068 585.833 342.427C578.01 343.792 570.875 344.927 564.416 345.844C557.968 346.75 553.26 347.068 550.291 346.802L556.395 440.74L450.562 441.844C451.364 428.802 451.922 417.417 452.229 407.677C452.547 397.943 452.875 388.125 453.208 378.219C453.552 368.318 454.114 357.032 454.895 344.365C456.489 305.88 458.177 266.469 459.958 226.136C461.093 205.25 462.047 184.334 462.812 163.386C463.604 142.459 464.77 121.38 466.312 100.157C484.479 94.3128 502.677 89.9586 520.916 87.094C538.76 84.5836 557.229 83.6305 576.312 84.2399C587.114 84.8544 597.843 86.3805 608.5 88.8232C619.166 91.3128 629.52 95.068 639.562 100.094C649.229 105.094 658.047 111.146 666.02 118.24C674.38 125.365 681.484 133.886 687.333 143.802C692.817 153.667 697.255 164.75 700.645 177.052ZM607.083 228.782C611.109 225.771 614.604 220.365 617.562 212.573C620.52 204.771 621.906 196.646 621.729 188.198C621.562 179.74 618.901 172.844 613.75 167.511C609.666 163.011 604.13 159.979 597.145 158.407C590.156 156.823 583.187 156.104 576.229 156.24C569.281 156.365 563.531 156.782 558.979 157.49C554.422 158.198 552.145 158.552 552.145 158.552C552.145 158.552 551.968 162.568 551.625 170.594C551.276 178.625 551.401 189.604 552 203.532C552.317 216.688 552.713 226.844 553.187 234.011C553.656 241.177 553.895 244.761 553.895 244.761C554.604 245.209 557.593 245.297 562.875 245.032C568.151 244.755 574.734 243.479 582.625 241.198C590.51 238.907 598.666 234.771 607.083 228.782Z" fill="#D42310"/>
</g>
</svg>
