<svg xmlns="http://www.w3.org/2000/svg" xmlns:xlink="http://www.w3.org/1999/xlink" width="1315" zoomAndPan="magnify" viewBox="0 0 986.25 699.749979" height="933" preserveAspectRatio="xMidYMid meet"><defs><g></g><clipPath id="2f0f29742c"><rect x="0" width="214" y="0" height="412"></rect></clipPath><clipPath id="845bce295d"><rect x="0" width="203" y="0" height="412"></rect></clipPath><clipPath id="13300a7cab"><rect x="0" width="283" y="0" height="412"></rect></clipPath><clipPath id="4ce6bc3d62"><rect x="0" width="115" y="0" height="412"></rect></clipPath><clipPath id="b077af0ec3"><rect x="0" width="239" y="0" height="429"></rect></clipPath></defs><g transform="matrix(1, 0, 0, 1, 224, 156)"><g clip-path="url(#2f0f29742c)"><g fill="#000000" fill-opacity="1"><g transform="translate(17.862495, 326.1386)"><g><path d="M 188.011719 -139.878906 C 191.523438 -126.132812 192.40625 -111.121094 190.660156 -94.839844 C 189.792969 -84.972656 187.75 -75.367188 184.535156 -66.019531 C 181.3125 -56.929688 177.210938 -48.578125 172.230469 -40.964844 C 167.28125 -33.101562 161.574219 -26.085938 155.113281 -19.917969 L 155.074219 -19.878906 L 155.035156 -19.84375 C 148.269531 -13.667969 140.910156 -8.515625 132.957031 -4.394531 C 124.96875 -0.25 116.398438 2.707031 107.242188 4.476562 C 98.101562 6.246094 88.535156 6.691406 78.546875 5.808594 L 78.367188 5.792969 C 68.957031 4.613281 59.988281 2.261719 51.449219 -1.273438 C 42.898438 -4.808594 35.078125 -9.382812 27.992188 -14.996094 L 31.089844 -18.90625 L 28.097656 -14.914062 C 20.96875 -20.261719 14.734375 -26.640625 9.394531 -34.054688 L 13.445312 -36.972656 L 9.53125 -33.875 C 3.921875 -40.960938 -0.652344 -48.78125 -4.191406 -57.332031 C -7.703125 -65.820312 -10.191406 -74.742188 -11.652344 -84.097656 C -13.113281 -93.460938 -13.410156 -103.105469 -12.53125 -113.035156 L -12.523438 -113.117188 L -12.515625 -113.195312 C -11.355469 -122.757812 -9.328125 -132.03125 -6.429688 -141.015625 L -6.40625 -141.085938 L -6.382812 -141.152344 C -3.167969 -150.210938 0.929688 -158.546875 5.90625 -166.164062 C 10.878906 -174.058594 16.75 -181.097656 23.523438 -187.285156 L 26.890625 -183.597656 L 23.359375 -187.128906 C 29.886719 -193.652344 37.160156 -198.996094 45.179688 -203.152344 C 53.109375 -207.265625 61.480469 -210.351562 70.289062 -212.40625 L 70.476562 -212.445312 C 79.675781 -214.226562 89.023438 -214.523438 98.511719 -213.339844 L 97.890625 -208.386719 L 98.371094 -213.355469 C 113.582031 -211.890625 127.359375 -207.925781 139.699219 -201.464844 C 151.8125 -194.964844 162.003906 -186.546875 170.269531 -176.210938 C 178.265625 -165.847656 184.171875 -153.769531 187.988281 -139.976562 Z M 178.371094 -137.316406 C 174.902344 -149.851562 169.605469 -160.738281 162.476562 -169.980469 C 155.058594 -179.25 145.925781 -186.800781 135.070312 -192.625 C 123.882812 -198.484375 111.332031 -202.082031 97.414062 -203.421875 L 97.34375 -203.425781 L 97.273438 -203.4375 C 88.835938 -204.492188 80.535156 -204.230469 72.371094 -202.648438 L 71.421875 -207.546875 L 72.558594 -202.6875 C 64.558594 -200.820312 56.964844 -198.023438 49.773438 -194.292969 C 42.667969 -190.609375 36.214844 -185.871094 30.417969 -180.070312 L 30.253906 -179.914062 C 24.144531 -174.335938 18.8125 -167.933594 14.257812 -160.703125 C 9.714844 -153.753906 5.96875 -146.125 3.023438 -137.816406 L -1.679688 -139.484375 L 3.066406 -137.953125 C 0.363281 -129.574219 -1.527344 -120.921875 -2.609375 -111.996094 L -7.5625 -112.597656 L -2.59375 -112.15625 C -3.398438 -103.039062 -3.128906 -94.199219 -1.792969 -85.636719 C -0.453125 -77.066406 1.820312 -68.902344 5.03125 -61.148438 C 8.214844 -53.453125 12.324219 -46.425781 17.355469 -40.070312 L 17.425781 -39.980469 L 17.492188 -39.886719 C 22.238281 -33.296875 27.769531 -27.632812 34.082031 -22.898438 L 34.136719 -22.859375 L 34.1875 -22.816406 C 40.546875 -17.785156 47.570312 -13.675781 55.265625 -10.492188 C 62.972656 -7.300781 71.085938 -5.175781 79.605469 -4.109375 L 78.984375 0.839844 L 79.425781 -4.128906 C 88.480469 -3.332031 97.121094 -3.726562 105.347656 -5.320312 C 113.558594 -6.90625 121.230469 -9.550781 128.367188 -13.253906 C 135.539062 -16.972656 142.1875 -21.625 148.304688 -27.210938 L 151.667969 -23.527344 L 148.222656 -27.136719 C 154.085938 -32.734375 159.304688 -39.164062 163.878906 -46.425781 C 168.421875 -53.375 172.164062 -60.988281 175.101562 -69.265625 C 178.046875 -77.84375 179.929688 -86.722656 180.738281 -95.902344 C 182.355469 -110.992188 181.558594 -124.828125 178.34375 -137.410156 Z M 121.515625 -78.382812 C 122.003906 -82.035156 121.878906 -85.691406 121.148438 -89.351562 L 126.039062 -90.328125 L 121.242188 -88.957031 C 120.238281 -92.476562 118.859375 -95.738281 117.109375 -98.738281 L 121.417969 -101.253906 L 117.382812 -98.316406 C 115.492188 -100.917969 113.113281 -103.171875 110.25 -105.082031 C 107.328125 -107.105469 103.949219 -108.230469 100.121094 -108.457031 L 99.972656 -108.464844 L 99.828125 -108.480469 C 95.839844 -108.949219 92.253906 -108.617188 89.066406 -107.476562 L 88.871094 -107.410156 L 88.671875 -107.355469 C 85.167969 -106.421875 82.148438 -104.917969 79.625 -102.851562 L 76.464844 -106.714844 L 79.820312 -103.023438 C 77.238281 -100.675781 75.25 -97.988281 73.851562 -94.960938 L 73.789062 -94.820312 L 73.714844 -94.6875 C 72.042969 -91.578125 70.964844 -88.226562 70.488281 -84.628906 C 70 -80.976562 70.121094 -77.320312 70.855469 -73.660156 C 71.566406 -70.105469 72.859375 -66.921875 74.734375 -64.109375 L 74.863281 -63.910156 L 74.976562 -63.707031 C 76.511719 -60.851562 78.722656 -58.539062 81.601562 -56.765625 L 81.796875 -56.644531 L 81.980469 -56.507812 C 84.625 -54.527344 87.882812 -53.304688 91.753906 -52.851562 L 91.167969 -47.894531 L 91.167969 -52.886719 L 92.164062 -52.886719 L 92.320312 -52.875 C 96.121094 -52.636719 99.660156 -53.105469 102.9375 -54.273438 C 106.539062 -55.476562 109.621094 -57.242188 112.179688 -59.570312 C 114.839844 -61.988281 117.015625 -64.765625 118.707031 -67.90625 L 123.101562 -65.542969 L 118.515625 -67.507812 C 120.015625 -71.007812 121.015625 -74.636719 121.515625 -78.382812 Z M 131.40625 -77.066406 C 130.785156 -72.414062 129.546875 -67.914062 127.6875 -63.574219 L 127.597656 -63.371094 L 127.492188 -63.175781 C 125.261719 -59.035156 122.394531 -55.371094 118.894531 -52.1875 C 115.292969 -48.914062 111.09375 -46.476562 106.292969 -44.878906 C 101.726562 -43.246094 96.863281 -42.59375 91.699219 -42.914062 L 92.007812 -47.894531 L 92.007812 -42.90625 L 90.878906 -42.90625 L 90.585938 -42.941406 C 84.933594 -43.605469 80.070312 -45.46875 75.992188 -48.527344 L 78.984375 -52.515625 L 76.371094 -48.269531 C 71.96875 -50.976562 68.574219 -54.546875 66.191406 -58.972656 L 70.582031 -61.339844 L 66.429688 -58.570312 C 63.824219 -62.480469 62.039062 -66.859375 61.070312 -71.703125 C 60.121094 -76.449219 59.960938 -81.195312 60.59375 -85.945312 C 61.234375 -90.75 62.679688 -95.242188 64.929688 -99.417969 L 69.324219 -97.050781 L 64.792969 -99.140625 C 66.753906 -103.398438 69.527344 -107.152344 73.109375 -110.40625 L 73.203125 -110.492188 L 73.304688 -110.574219 C 76.941406 -113.550781 81.207031 -115.691406 86.101562 -116.996094 L 87.386719 -112.175781 L 85.710938 -116.875 C 90.363281 -118.539062 95.460938 -119.042969 100.996094 -118.390625 L 100.414062 -113.4375 L 100.707031 -118.417969 C 106.398438 -118.082031 111.425781 -116.40625 115.785156 -113.386719 C 119.640625 -110.816406 122.863281 -107.75 125.453125 -104.1875 L 125.601562 -103.984375 L 125.730469 -103.765625 C 127.898438 -100.046875 129.601562 -96.023438 130.839844 -91.699219 L 130.894531 -91.503906 L 130.933594 -91.308594 C 131.882812 -86.5625 132.039062 -81.816406 131.40625 -77.066406 Z M 131.40625 -77.066406 "></path></g></g></g><g fill="#d42310" fill-opacity="1"><g transform="translate(17.862495, 326.1386)"><g><path d="M 183.1875 -138.640625 C 186.539062 -125.484375 187.378906 -111.0625 185.703125 -95.375 C 184.859375 -85.851562 182.894531 -76.609375 179.8125 -67.640625 C 176.738281 -58.960938 172.820312 -50.976562 168.0625 -43.6875 C 163.289062 -36.125 157.828125 -29.40625 151.671875 -23.53125 C 145.222656 -17.644531 138.21875 -12.742188 130.65625 -8.828125 C 123.09375 -4.898438 114.972656 -2.097656 106.296875 -0.421875 C 97.609375 1.253906 88.503906 1.675781 78.984375 0.84375 C 70.023438 -0.28125 61.484375 -2.519531 53.359375 -5.875 C 45.234375 -9.238281 37.8125 -13.582031 31.09375 -18.90625 C 24.363281 -23.945312 18.476562 -29.96875 13.4375 -36.96875 C 8.125 -43.695312 3.785156 -51.117188 0.421875 -59.234375 C -2.941406 -67.359375 -5.320312 -75.90625 -6.71875 -84.875 C -8.125 -93.832031 -8.40625 -103.070312 -7.5625 -112.59375 C -6.4375 -121.84375 -4.476562 -130.804688 -1.6875 -139.484375 C 1.394531 -148.171875 5.316406 -156.15625 10.078125 -163.4375 C 14.835938 -171 20.441406 -177.71875 26.890625 -183.59375 C 33.046875 -189.757812 39.90625 -194.804688 47.46875 -198.734375 C 55.03125 -202.648438 63.015625 -205.585938 71.421875 -207.546875 C 80.109375 -209.234375 88.929688 -209.515625 97.890625 -208.390625 C 112.453125 -206.992188 125.617188 -203.210938 137.390625 -197.046875 C 148.867188 -190.878906 158.53125 -182.894531 166.375 -173.09375 C 173.9375 -163.289062 179.539062 -151.804688 183.1875 -138.640625 Z M 126.46875 -77.71875 C 127.019531 -81.925781 126.878906 -86.128906 126.046875 -90.328125 C 124.921875 -94.253906 123.378906 -97.894531 121.421875 -101.25 C 119.179688 -104.332031 116.378906 -106.992188 113.015625 -109.234375 C 109.378906 -111.753906 105.175781 -113.15625 100.40625 -113.4375 C 95.644531 -114 91.304688 -113.578125 87.390625 -112.171875 C 83.191406 -111.054688 79.550781 -109.238281 76.46875 -106.71875 C 73.382812 -103.914062 71.003906 -100.691406 69.328125 -97.046875 C 67.359375 -93.410156 66.097656 -89.488281 65.546875 -85.28125 C 64.984375 -81.082031 65.125 -76.882812 65.96875 -72.6875 C 66.800781 -68.476562 68.335938 -64.695312 70.578125 -61.34375 C 72.546875 -57.695312 75.347656 -54.753906 78.984375 -52.515625 C 82.347656 -49.992188 86.410156 -48.453125 91.171875 -47.890625 C 91.453125 -47.890625 91.660156 -47.890625 91.796875 -47.890625 C 91.941406 -47.890625 92.015625 -47.890625 92.015625 -47.890625 C 96.492188 -47.609375 100.691406 -48.171875 104.609375 -49.578125 C 108.816406 -50.972656 112.457031 -53.070312 115.53125 -55.875 C 118.613281 -58.675781 121.132812 -61.898438 123.09375 -65.546875 C 124.78125 -69.460938 125.90625 -73.519531 126.46875 -77.71875 Z M 126.46875 -77.71875 "></path></g></g></g></g></g><g transform="matrix(1, 0, 0, 1, 80, 142)"><g clip-path="url(#845bce295d)"><g fill="#000000" fill-opacity="1"><g transform="translate(4.031946, 325.618862)"><g><path d="M 189.578125 -211.269531 C 192.8125 -201.859375 194.722656 -191.175781 195.304688 -179.222656 C 195.886719 -166.105469 194.855469 -154.40625 192.210938 -144.125 C 189.550781 -133.773438 185.542969 -124.582031 180.1875 -116.550781 L 176.035156 -119.320312 L 180.257812 -116.660156 C 175.175781 -108.585938 168.894531 -101.707031 161.410156 -96.019531 C 154.414062 -90.480469 146.667969 -85.804688 138.164062 -81.996094 C 136.011719 -81.074219 132.484375 -79.816406 127.578125 -78.230469 C 122.734375 -76.664062 117.402344 -75.097656 111.578125 -73.535156 C 105.785156 -71.984375 100.484375 -70.640625 95.671875 -69.507812 C 90.535156 -68.296875 86.652344 -67.695312 84.027344 -67.695312 L 84.027344 -72.683594 L 88.957031 -73.457031 L 100.695312 1.492188 L 11.132812 10.546875 L 10.976562 5.183594 C 10.699219 -4.570312 10.351562 -13.066406 9.933594 -20.300781 L 8.671875 -42.359375 C 8.25 -49.828125 7.898438 -58.347656 7.617188 -67.914062 L 3.417969 -156.472656 C 2.859375 -172.167969 2.160156 -187.84375 1.320312 -203.5 C 0.476562 -219.242188 -0.0859375 -235.128906 -0.367188 -251.152344 L -0.425781 -254.515625 L 2.667969 -255.832031 C 16.074219 -261.535156 29.625 -266.101562 43.324219 -269.527344 C 56.816406 -272.683594 70.84375 -274.691406 85.414062 -275.546875 L 85.476562 -275.550781 L 85.535156 -275.554688 C 93.945312 -275.84375 102.351562 -275.410156 110.757812 -274.25 C 119.273438 -273.074219 127.636719 -270.875 135.847656 -267.648438 C 143.835938 -264.394531 151.21875 -260.261719 157.996094 -255.253906 C 165.117188 -250.210938 171.359375 -243.964844 176.726562 -236.511719 L 176.765625 -236.457031 L 176.800781 -236.402344 C 181.789062 -229.070312 186.03125 -220.734375 189.53125 -211.398438 L 189.554688 -211.335938 Z M 180.140625 -208.027344 L 184.859375 -209.648438 L 180.1875 -207.894531 C 176.96875 -216.484375 173.085938 -224.117188 168.550781 -230.789062 L 172.675781 -233.59375 L 168.625 -230.679688 C 163.910156 -237.230469 158.386719 -242.75 152.0625 -247.230469 C 145.957031 -251.742188 139.335938 -255.453125 132.199219 -258.359375 C 124.726562 -261.296875 117.125 -263.296875 109.394531 -264.363281 C 101.554688 -265.445312 93.714844 -265.851562 85.878906 -265.582031 L 85.707031 -270.566406 L 86 -265.585938 C 72 -264.761719 58.582031 -262.847656 45.746094 -259.84375 C 32.554688 -256.546875 19.5 -252.148438 6.574219 -246.648438 L 4.621094 -251.242188 L 9.609375 -251.328125 C 9.890625 -235.421875 10.445312 -219.65625 11.285156 -204.03125 C 12.125 -188.316406 12.828125 -172.621094 13.386719 -156.945312 L 17.589844 -68.207031 C 17.871094 -58.730469 18.21875 -50.304688 18.636719 -42.929688 L 19.894531 -20.875 C 20.320312 -13.542969 20.671875 -4.953125 20.953125 4.898438 L 15.964844 5.042969 L 15.464844 0.078125 L 94.449219 -7.90625 L 94.949219 -2.941406 L 90.019531 -2.167969 L 78.195312 -77.671875 L 84.027344 -77.671875 C 85.882812 -77.671875 89.003906 -78.1875 93.386719 -79.222656 C 98.097656 -80.328125 103.300781 -81.648438 108.992188 -83.175781 C 114.652344 -84.691406 119.824219 -86.210938 124.503906 -87.722656 C 129.121094 -89.21875 132.3125 -90.34375 134.082031 -91.101562 C 141.828125 -94.574219 148.921875 -98.859375 155.371094 -103.964844 C 161.894531 -108.921875 167.375 -114.925781 171.816406 -121.976562 L 171.847656 -122.03125 L 171.886719 -122.085938 C 176.613281 -129.179688 180.167969 -137.351562 182.546875 -146.609375 C 184.945312 -155.933594 185.875 -166.640625 185.339844 -178.734375 C 184.800781 -189.746094 183.070312 -199.511719 180.140625 -208.027344 Z M 115.140625 -168.402344 C 117.222656 -170.277344 118.972656 -173.757812 120.394531 -178.847656 C 121.902344 -184.25 122.339844 -189.78125 121.710938 -195.441406 C 121.15625 -200.449219 119.269531 -204.347656 116.050781 -207.136719 L 116 -207.183594 L 115.945312 -207.230469 C 113.359375 -209.601562 109.925781 -211.070312 105.644531 -211.632812 C 100.71875 -212.28125 95.859375 -212.347656 91.074219 -211.828125 C 86.121094 -211.292969 82.074219 -210.632812 78.933594 -209.847656 L 73.894531 -208.589844 L 72.683594 -213.429688 L 77.667969 -213.660156 L 78.085938 -204.628906 C 78.359375 -198.75 79.1875 -190.703125 80.570312 -180.484375 C 81.691406 -170.6875 82.664062 -163.160156 83.492188 -157.910156 L 84.753906 -149.925781 L 79.824219 -149.148438 L 82.058594 -153.609375 C 81.574219 -153.851562 81.15625 -153.984375 80.808594 -154 C 80.972656 -153.992188 81.242188 -154 81.617188 -154.023438 C 82.605469 -154.085938 84.011719 -154.246094 85.84375 -154.507812 C 89.382812 -155.011719 93.84375 -156.316406 99.230469 -158.417969 C 104.445312 -160.453125 109.777344 -163.808594 115.230469 -168.480469 L 118.476562 -164.691406 Z M 121.816406 -160.984375 L 121.769531 -160.945312 L 121.726562 -160.90625 C 115.414062 -155.496094 109.125 -151.566406 102.855469 -149.121094 C 96.757812 -146.742188 91.554688 -145.242188 87.253906 -144.628906 C 82.304688 -143.921875 79.085938 -143.941406 77.59375 -144.6875 L 75.296875 -145.832031 L 73.636719 -156.351562 C 72.785156 -161.746094 71.800781 -169.34375 70.679688 -179.148438 C 69.261719 -189.65625 68.40625 -197.996094 68.121094 -204.164062 L 67.507812 -217.277344 L 76.515625 -219.53125 C 80.097656 -220.425781 84.59375 -221.164062 90.003906 -221.75 C 95.582031 -222.355469 101.226562 -222.277344 106.945312 -221.527344 C 113.308594 -220.691406 118.554688 -218.375 122.691406 -214.585938 L 119.320312 -210.90625 L 122.585938 -214.679688 C 127.769531 -210.183594 130.785156 -204.140625 131.628906 -196.542969 C 132.402344 -189.601562 131.859375 -182.808594 130.007812 -176.167969 C 128.066406 -169.210938 125.335938 -164.152344 121.816406 -160.984375 Z M 121.816406 -160.984375 "></path></g></g></g><g fill="#d42310" fill-opacity="1"><g transform="translate(4.031946, 325.618862)"><g><path d="M 184.859375 -209.65625 C 187.941406 -200.6875 189.765625 -190.460938 190.328125 -178.984375 C 190.878906 -166.378906 189.894531 -155.175781 187.375 -145.375 C 184.851562 -135.5625 181.070312 -126.875 176.03125 -119.3125 C 171.269531 -111.75 165.390625 -105.3125 158.390625 -100 C 151.671875 -94.675781 144.25 -90.191406 136.125 -86.546875 C 134.164062 -85.703125 130.804688 -84.507812 126.046875 -82.96875 C 121.285156 -81.4375 116.03125 -79.898438 110.28125 -78.359375 C 104.539062 -76.816406 99.289062 -75.484375 94.53125 -74.359375 C 89.769531 -73.242188 86.269531 -72.6875 84.03125 -72.6875 L 94.953125 -2.9375 L 15.96875 5.046875 C 15.6875 -4.753906 15.332031 -13.296875 14.90625 -20.578125 C 14.488281 -27.867188 14.070312 -35.222656 13.65625 -42.640625 C 13.238281 -50.066406 12.890625 -58.539062 12.609375 -68.0625 C 11.203125 -96.914062 9.800781 -126.46875 8.40625 -156.71875 C 7.84375 -172.394531 7.140625 -188.078125 6.296875 -203.765625 C 5.460938 -219.453125 4.90625 -235.28125 4.625 -251.25 C 17.789062 -256.84375 31.09375 -261.320312 44.53125 -264.6875 C 57.695312 -267.769531 71.421875 -269.734375 85.703125 -270.578125 C 93.828125 -270.847656 101.953125 -270.425781 110.078125 -269.3125 C 118.203125 -268.1875 126.1875 -266.085938 134.03125 -263.015625 C 141.59375 -259.929688 148.59375 -256.007812 155.03125 -251.25 C 161.75 -246.488281 167.628906 -240.601562 172.671875 -233.59375 C 177.429688 -226.59375 181.492188 -218.613281 184.859375 -209.65625 Z M 118.484375 -164.6875 C 121.285156 -167.207031 123.523438 -171.476562 125.203125 -177.5 C 126.878906 -183.53125 127.367188 -189.695312 126.671875 -196 C 125.972656 -202.300781 123.519531 -207.269531 119.3125 -210.90625 C 115.957031 -213.988281 111.617188 -215.878906 106.296875 -216.578125 C 100.972656 -217.285156 95.71875 -217.359375 90.53125 -216.796875 C 85.351562 -216.234375 81.082031 -215.53125 77.71875 -214.6875 C 74.363281 -213.851562 72.6875 -213.4375 72.6875 -213.4375 C 72.6875 -213.4375 72.828125 -210.421875 73.109375 -204.390625 C 73.390625 -198.367188 74.226562 -190.175781 75.625 -179.8125 C 76.75 -170.007812 77.726562 -162.445312 78.5625 -157.125 C 79.40625 -151.8125 79.828125 -149.15625 79.828125 -149.15625 C 80.390625 -148.875 82.628906 -149.007812 86.546875 -149.5625 C 90.472656 -150.125 95.304688 -151.523438 101.046875 -153.765625 C 106.785156 -156.003906 112.597656 -159.644531 118.484375 -164.6875 Z M 118.484375 -164.6875 "></path></g></g></g></g></g><g transform="matrix(1, 0, 0, 1, 530, 156)"><g clip-path="url(#13300a7cab)"><g fill="#000000" fill-opacity="1"><g transform="translate(31.757257, 326.1386)"><g><path d="M 183.847656 -285.945312 L 248.121094 0.726562 L 140.070312 9.535156 L 129.96875 -41.890625 L 134.863281 -42.855469 L 134.585938 -37.871094 L 89.628906 -40.394531 L 89.910156 -45.375 L 94.746094 -44.144531 L 81.859375 6.46875 L -28.046875 -10.6875 L 66.160156 -289.839844 L 182.972656 -289.839844 Z M 174.109375 -283.761719 L 178.976562 -284.851562 L 178.976562 -279.863281 L 69.742188 -279.863281 L 69.742188 -284.851562 L 74.46875 -283.257812 L -16.699219 -13.109375 L -21.425781 -14.703125 L -20.65625 -19.632812 L 78.914062 -4.089844 L 78.144531 0.839844 L 73.308594 -0.390625 L 86.085938 -50.585938 L 139.011719 -47.617188 L 149.003906 3.238281 L 144.105469 4.203125 L 143.699219 -0.773438 L 241.59375 -8.753906 L 242 -3.78125 L 237.128906 -2.691406 Z M 101.539062 -112.957031 L 130.945312 -111.277344 L 130.664062 -106.292969 L 125.734375 -105.519531 L 114.390625 -177.785156 L 119.320312 -178.558594 L 124.152344 -177.320312 L 106.085938 -106.738281 L 101.253906 -107.976562 Z M 94.917969 -103.339844 L 114.484375 -179.792969 L 124.246094 -179.332031 L 136.550781 -100.960938 L 100.96875 -102.992188 Z M 94.917969 -103.339844 "></path></g></g></g><g fill="#d42310" fill-opacity="1"><g transform="translate(31.757257, 326.1386)"><g><path d="M 178.984375 -284.859375 L 242 -3.78125 L 144.109375 4.203125 L 134.859375 -42.859375 L 89.90625 -45.375 L 78.140625 0.84375 L -21.421875 -14.703125 L 69.75 -284.859375 Z M 101.25 -107.96875 L 130.65625 -106.296875 L 119.3125 -178.5625 Z M 101.25 -107.96875 "></path></g></g></g></g></g><g transform="matrix(1, 0, 0, 1, 790, 156)"><g clip-path="url(#4ce6bc3d62)"><g fill="#000000" fill-opacity="1"><g transform="translate(4.267524, 326.1386)"><g><path d="M 96.140625 6.238281 L 13.28125 12.058594 L 1.054688 -299.261719 L 107.175781 -273.195312 L 100.671875 5.917969 Z M 95.441406 -3.714844 L 95.789062 1.261719 L 90.804688 1.144531 L 97.105469 -269.421875 L 102.09375 -269.308594 L 100.902344 -264.460938 L 5.113281 -287.988281 L 6.300781 -292.835938 L 11.289062 -293.03125 L 23.050781 6.527344 L 18.066406 6.722656 L 17.714844 1.746094 Z M 95.441406 -3.714844 "></path></g></g></g><g fill="#d42310" fill-opacity="1"><g transform="translate(4.267524, 326.1386)"><g><path d="M 95.796875 1.265625 L 18.0625 6.71875 L 6.296875 -292.84375 L 102.09375 -269.3125 Z M 95.796875 1.265625 "></path></g></g></g></g></g><g transform="matrix(1, 0, 0, 1, 391, 134)"><g clip-path="url(#b077af0ec3)"><g fill="#000000" fill-opacity="1"><g transform="translate(11.468481, 324.914265)"><g><path d="M 207.859375 -193.3125 C 210.230469 -183.648438 211.167969 -172.835938 210.671875 -160.875 C 210.070312 -147.765625 207.988281 -136.207031 204.425781 -126.203125 C 200.84375 -116.132812 196.023438 -107.34375 189.964844 -99.824219 L 186.082031 -102.957031 L 190.046875 -99.929688 C 184.253906 -92.347656 177.378906 -86.0625 169.410156 -81.070312 C 161.945312 -76.1875 153.808594 -72.230469 144.996094 -69.199219 C 142.769531 -68.476562 139.140625 -67.542969 134.113281 -66.40625 C 129.148438 -65.28125 123.695312 -64.203125 117.753906 -63.175781 C 111.847656 -62.148438 106.445312 -61.289062 101.550781 -60.59375 C 96.328125 -59.855469 92.40625 -59.601562 89.789062 -59.839844 L 90.238281 -64.808594 L 95.21875 -65.132812 L 100.152344 10.570312 L 10.132812 11.507812 L 10.464844 6.152344 C 11.066406 -3.585938 11.488281 -12.078125 11.722656 -19.320312 L 12.457031 -41.40625 C 12.710938 -48.882812 13.128906 -57.398438 13.710938 -66.953125 L 17.515625 -155.527344 C 18.375 -171.210938 19.089844 -186.882812 19.667969 -202.550781 C 20.246094 -218.308594 21.121094 -234.179688 22.285156 -250.164062 L 22.527344 -253.515625 L 25.730469 -254.550781 C 39.59375 -259.019531 53.503906 -262.34375 67.457031 -264.519531 C 81.175781 -266.449219 95.328125 -267.183594 109.917969 -266.722656 L 109.976562 -266.71875 L 110.039062 -266.71875 C 118.4375 -266.246094 126.773438 -265.054688 135.039062 -263.144531 C 143.414062 -261.207031 151.546875 -258.261719 159.433594 -254.308594 C 167.09375 -250.34375 174.074219 -245.566406 180.371094 -239.964844 C 187.007812 -234.300781 192.664062 -227.515625 197.335938 -219.609375 L 197.367188 -219.550781 L 197.402344 -219.492188 C 201.707031 -211.742188 205.179688 -203.058594 207.824219 -193.445312 L 207.84375 -193.378906 Z M 198.167969 -190.933594 L 203.011719 -192.121094 L 198.203125 -190.796875 C 195.769531 -199.644531 192.59375 -207.59375 188.675781 -214.648438 L 193.039062 -217.070312 L 188.742188 -214.53125 C 184.636719 -221.484375 179.636719 -227.476562 173.742188 -232.507812 C 168.066406 -237.554688 161.804688 -241.847656 154.960938 -245.386719 C 147.78125 -248.984375 140.390625 -251.664062 132.789062 -253.421875 C 125.082031 -255.207031 117.3125 -256.316406 109.480469 -256.753906 L 109.757812 -261.734375 L 109.601562 -256.75 C 95.585938 -257.191406 82.046875 -256.496094 68.992188 -254.660156 C 55.558594 -252.566406 42.160156 -249.363281 28.792969 -245.050781 L 27.261719 -249.800781 L 32.238281 -249.4375 C 31.082031 -233.570312 30.214844 -217.820312 29.640625 -202.183594 C 29.058594 -186.457031 28.34375 -170.761719 27.488281 -155.101562 L 23.671875 -66.34375 C 23.09375 -56.878906 22.679688 -48.457031 22.429688 -41.074219 L 21.699219 -18.996094 C 21.457031 -11.65625 21.035156 -3.066406 20.425781 6.769531 L 15.445312 6.460938 L 15.394531 1.472656 L 94.777344 0.644531 L 94.828125 5.632812 L 89.851562 5.957031 L 84.882812 -70.304688 L 90.691406 -69.777344 C 92.535156 -69.609375 95.691406 -69.84375 100.152344 -70.476562 C 104.945312 -71.15625 110.242188 -72 116.050781 -73.003906 C 121.824219 -74.007812 127.109375 -75.050781 131.910156 -76.136719 C 136.640625 -77.207031 139.921875 -78.042969 141.753906 -78.636719 C 149.777344 -81.394531 157.230469 -85.027344 164.113281 -89.527344 C 171.058594 -93.875 177.058594 -99.363281 182.113281 -105.984375 L 182.15625 -106.035156 L 182.195312 -106.085938 C 187.542969 -112.722656 191.820312 -120.546875 195.027344 -129.550781 C 198.253906 -138.617188 200.148438 -149.199219 200.703125 -161.292969 C 201.160156 -172.304688 200.316406 -182.1875 198.167969 -190.933594 Z M 129.859375 -157.332031 C 132.101562 -159.011719 134.160156 -162.320312 136.035156 -167.261719 C 138.023438 -172.503906 138.957031 -177.972656 138.84375 -183.667969 C 138.738281 -188.707031 137.210938 -192.761719 134.257812 -195.828125 L 134.164062 -195.929688 C 131.800781 -198.523438 128.511719 -200.296875 124.300781 -201.242188 C 119.453125 -202.332031 114.621094 -202.835938 109.808594 -202.753906 C 104.824219 -202.664062 100.734375 -202.375 97.539062 -201.875 L 92.402344 -201.074219 L 91.636719 -206.003906 L 96.621094 -205.785156 L 96.222656 -196.75 C 95.964844 -190.875 96.0625 -182.785156 96.519531 -172.484375 C 96.75 -162.625 97.042969 -155.039062 97.394531 -149.734375 L 97.929688 -141.671875 L 92.953125 -141.339844 L 95.578125 -145.585938 C 95.117188 -145.871094 94.714844 -146.035156 94.371094 -146.085938 C 94.53125 -146.0625 94.800781 -146.046875 95.171875 -146.035156 C 96.164062 -146.007812 97.582031 -146.039062 99.425781 -146.136719 C 103 -146.320312 107.558594 -147.214844 113.113281 -148.824219 C 118.488281 -150.378906 124.105469 -153.238281 129.957031 -157.402344 L 132.847656 -153.335938 Z M 135.839844 -149.34375 L 135.789062 -149.304688 L 135.742188 -149.269531 C 128.96875 -144.453125 122.347656 -141.109375 115.886719 -139.238281 C 109.597656 -137.417969 104.28125 -136.394531 99.941406 -136.171875 C 94.949219 -135.914062 91.742188 -136.222656 90.328125 -137.097656 L 88.144531 -138.449219 L 87.4375 -149.074219 C 87.074219 -154.519531 86.78125 -162.179688 86.546875 -172.046875 C 86.082031 -182.640625 85.984375 -191.019531 86.253906 -197.1875 L 86.828125 -210.304688 L 96 -211.734375 C 99.652344 -212.304688 104.195312 -212.636719 109.636719 -212.730469 C 115.246094 -212.828125 120.863281 -212.242188 126.488281 -210.980469 C 132.75 -209.570312 137.765625 -206.792969 141.542969 -202.648438 L 137.851562 -199.289062 L 141.449219 -202.75 C 146.207031 -197.804688 148.664062 -191.511719 148.820312 -183.871094 C 148.960938 -176.886719 147.808594 -170.171875 145.363281 -163.722656 C 142.804688 -156.972656 139.628906 -152.179688 135.839844 -149.34375 Z M 135.839844 -149.34375 "></path></g></g></g><g fill="#d42310" fill-opacity="1"><g transform="translate(11.468481, 324.914265)"><g><path d="M 203.015625 -192.125 C 205.265625 -182.914062 206.15625 -172.570312 205.6875 -161.09375 C 205.101562 -148.488281 203.113281 -137.421875 199.71875 -127.890625 C 196.320312 -118.335938 191.773438 -110.023438 186.078125 -102.953125 C 180.648438 -95.847656 174.210938 -89.96875 166.765625 -85.3125 C 159.585938 -80.613281 151.789062 -76.8125 143.375 -73.90625 C 141.34375 -73.25 137.890625 -72.367188 133.015625 -71.265625 C 128.140625 -70.171875 122.769531 -69.113281 116.90625 -68.09375 C 111.039062 -67.070312 105.6875 -66.21875 100.84375 -65.53125 C 96.007812 -64.851562 92.476562 -64.613281 90.25 -64.8125 L 94.828125 5.640625 L 15.453125 6.46875 C 16.054688 -3.3125 16.472656 -11.851562 16.703125 -19.15625 C 16.941406 -26.457031 17.1875 -33.820312 17.4375 -41.25 C 17.695312 -48.675781 18.117188 -57.140625 18.703125 -66.640625 C 19.898438 -95.503906 21.164062 -125.0625 22.5 -155.3125 C 23.351562 -170.976562 24.066406 -186.664062 24.640625 -202.375 C 25.234375 -218.070312 26.109375 -233.878906 27.265625 -249.796875 C 40.890625 -254.179688 54.539062 -257.445312 68.21875 -259.59375 C 81.601562 -261.476562 95.453125 -262.191406 109.765625 -261.734375 C 117.867188 -261.273438 125.914062 -260.128906 133.90625 -258.296875 C 141.90625 -256.429688 149.671875 -253.613281 157.203125 -249.84375 C 164.453125 -246.09375 171.066406 -241.554688 177.046875 -236.234375 C 183.316406 -230.890625 188.644531 -224.5 193.03125 -217.0625 C 197.144531 -209.664062 200.472656 -201.351562 203.015625 -192.125 Z M 132.84375 -153.328125 C 135.863281 -155.585938 138.484375 -159.640625 140.703125 -165.484375 C 142.921875 -171.335938 143.960938 -177.429688 143.828125 -183.765625 C 143.703125 -190.109375 141.707031 -195.28125 137.84375 -199.28125 C 134.78125 -202.65625 130.628906 -204.929688 125.390625 -206.109375 C 120.148438 -207.296875 114.921875 -207.835938 109.703125 -207.734375 C 104.492188 -207.640625 100.179688 -207.328125 96.765625 -206.796875 C 93.347656 -206.265625 91.640625 -206 91.640625 -206 C 91.640625 -206 91.507812 -202.988281 91.25 -196.96875 C 90.988281 -190.945312 91.082031 -182.710938 91.53125 -172.265625 C 91.769531 -162.398438 92.066406 -154.78125 92.421875 -149.40625 C 92.773438 -144.03125 92.953125 -141.34375 92.953125 -141.34375 C 93.484375 -141.007812 95.726562 -140.941406 99.6875 -141.140625 C 103.644531 -141.347656 108.582031 -142.304688 114.5 -144.015625 C 120.414062 -145.734375 126.53125 -148.835938 132.84375 -153.328125 Z M 132.84375 -153.328125 "></path></g></g></g></g></g></svg>